<svg id="Capa_1" data-name="Capa 1" xmlns="http://www.w3.org/2000/svg" viewBox="0 0 118.95 90.14"><defs><style>.cls-1{fill:#e10024;}.cls-2{fill:#253546;}</style></defs><title>btnbudget</title><circle class="cls-1" cx="59.47" cy="43.71" r="26.87"/><path class="cls-2" d="M56.8,81a2.31,2.31,0,0,1-2-1.13L36.09,48.58a2.32,2.32,0,0,1,2-3.5l31.15-.27L64.1,24.72a2.31,2.31,0,0,1,2.24-2.89l15.27,0-.43-10.22a2.31,2.31,0,0,1,4.63-.19L86.34,24A2.31,2.31,0,0,1,84,26.42l-14.71,0,5.11,20.07a2.31,2.31,0,0,1-2.22,2.89l-30.06.26,16.64,27.8a2.31,2.31,0,0,1-2,3.5Z"/></svg>