<svg id="Capa_1" data-name="Capa 1" xmlns="http://www.w3.org/2000/svg" viewBox="0 0 199.05 90.14"><defs><style>.cls-1{fill:#0eda87;}.cls-2,.cls-3{fill:#253546;}.cls-3{font-size:33px;font-family:Quicksand-Regular, Quicksand;}.cls-4{letter-spacing:-0.09em;}.cls-5{letter-spacing:-0.02em;}.cls-6{letter-spacing:0.06em;}</style></defs><title>btnDaily</title><circle class="cls-1" cx="58.22" cy="45.07" r="26.87"/><path class="cls-2" d="M26.79,52.81a46.35,46.35,0,0,1,7.38,15.32c.79,2.88,5.2,3.72,6.64.87A86.46,86.46,0,0,1,82.89,28.73c4.25-1.93.56-8.19-3.67-6.27A92.66,92.66,0,0,0,34.54,65.34l6.64.87a51.71,51.71,0,0,0-8.11-17.06c-2.71-3.76-9-.14-6.27,3.67Z"/><text class="cls-3" transform="translate(93.07 56.23)"><tspan class="cls-4">D</tspan><tspan x="20.76" y="0">a</tspan><tspan class="cls-5" x="41.18" y="0">i</tspan><tspan class="cls-6" x="49.76" y="0">l</tspan><tspan x="60.12" y="0">y</tspan></text></svg>