<svg width="153" height="50" viewBox="0 0 153 50" fill="none" xmlns="http://www.w3.org/2000/svg">
<ellipse cx="25.5" cy="25" rx="25.5" ry="25" fill="#0EDA87"/>
<path d="M25.5001 13.75V35.625" stroke="#F2F2F2" stroke-width="2" stroke-linecap="round" stroke-linejoin="round"/>
<path d="M36.3375 24.9999L14.025 24.9999" stroke="#F2F2F2" stroke-width="2" stroke-linecap="round" stroke-linejoin="round"/>
<path d="M67.6441 20.774C67.8681 20.8953 67.9801 21.082 67.9801 21.334C67.9801 21.502 67.9241 21.656 67.8121 21.796C67.7001 21.9453 67.5461 22.02 67.3501 22.02C67.2195 22.02 67.0935 21.9873 66.9721 21.922C66.3935 21.5953 65.7681 21.432 65.0961 21.432C64.3961 21.432 63.7755 21.586 63.2341 21.894C62.7021 22.202 62.2868 22.636 61.9881 23.196C61.6895 23.7467 61.5401 24.3813 61.5401 25.1C61.5401 25.8747 61.6941 26.542 62.0021 27.102C62.3101 27.662 62.7348 28.0913 63.2761 28.39C63.8175 28.6793 64.4241 28.824 65.0961 28.824C65.7868 28.824 66.4121 28.656 66.9721 28.32C67.0841 28.264 67.2055 28.236 67.3361 28.236C67.5415 28.236 67.7048 28.3153 67.8261 28.474C67.9381 28.614 67.9941 28.7633 67.9941 28.922C67.9941 29.034 67.9615 29.1413 67.8961 29.244C67.8401 29.3373 67.7608 29.412 67.6581 29.468C67.2941 29.6733 66.8835 29.8367 66.4261 29.958C65.9781 30.0793 65.5348 30.14 65.0961 30.14C64.1908 30.14 63.3555 29.9393 62.5901 29.538C61.8341 29.1367 61.2275 28.5533 60.7701 27.788C60.3221 27.0227 60.0981 26.1267 60.0981 25.1C60.0981 24.1573 60.3128 23.308 60.7421 22.552C61.1808 21.7867 61.7781 21.1893 62.5341 20.76C63.2995 20.3213 64.1535 20.102 65.0961 20.102C66.0015 20.102 66.8508 20.326 67.6441 20.774Z" fill="#123E6D"/>
<path d="M73.0719 22.496C73.3145 22.496 73.5245 22.5613 73.7019 22.692C73.8792 22.8133 73.9679 22.9673 73.9679 23.154C73.9679 23.378 73.9072 23.5507 73.7859 23.672C73.6739 23.784 73.5339 23.84 73.3659 23.84C73.2819 23.84 73.1559 23.812 72.9879 23.756C72.7919 23.6907 72.6379 23.658 72.5259 23.658C72.2365 23.658 71.9519 23.7607 71.6719 23.966C71.4012 24.162 71.1772 24.4373 70.9999 24.792C70.8319 25.1373 70.7479 25.5247 70.7479 25.954V29.328C70.7479 29.5147 70.6825 29.6733 70.5519 29.804C70.4305 29.9347 70.2719 30 70.0759 30C69.8799 30 69.7212 29.9393 69.5999 29.818C69.4785 29.6873 69.4179 29.524 69.4179 29.328V23.336C69.4179 23.1493 69.4785 22.9907 69.5999 22.86C69.7305 22.7293 69.8892 22.664 70.0759 22.664C70.2719 22.664 70.4305 22.7293 70.5519 22.86C70.6825 22.9907 70.7479 23.1493 70.7479 23.336V24.05C70.9532 23.5927 71.2612 23.224 71.6719 22.944C72.0825 22.6547 72.5492 22.5053 73.0719 22.496Z" fill="#123E6D"/>
<path d="M81.3266 26.052C81.3173 26.22 81.2473 26.3647 81.1166 26.486C80.986 26.598 80.832 26.654 80.6546 26.654H75.7266C75.792 27.3353 76.0486 27.8813 76.4966 28.292C76.954 28.7027 77.5093 28.908 78.1626 28.908C78.6106 28.908 78.9746 28.8427 79.2546 28.712C79.5346 28.5813 79.782 28.4133 79.9966 28.208C80.1366 28.124 80.272 28.082 80.4026 28.082C80.5613 28.082 80.692 28.138 80.7946 28.25C80.9066 28.362 80.9626 28.4927 80.9626 28.642C80.9626 28.838 80.8693 29.0153 80.6826 29.174C80.412 29.4447 80.0526 29.6733 79.6046 29.86C79.1566 30.0467 78.6993 30.14 78.2326 30.14C77.4766 30.14 76.8093 29.9813 76.2306 29.664C75.6613 29.3467 75.218 28.9033 74.9006 28.334C74.5926 27.7647 74.4386 27.1207 74.4386 26.402C74.4386 25.618 74.5973 24.932 74.9146 24.344C75.2413 23.7467 75.666 23.2893 76.1886 22.972C76.7206 22.6547 77.29 22.496 77.8966 22.496C78.494 22.496 79.054 22.65 79.5766 22.958C80.0993 23.266 80.5193 23.6907 80.8366 24.232C81.154 24.7733 81.3173 25.38 81.3266 26.052ZM77.8966 23.728C77.374 23.728 76.9213 23.8773 76.5386 24.176C76.156 24.4653 75.904 24.918 75.7826 25.534H79.9126V25.422C79.866 24.9273 79.642 24.5213 79.2406 24.204C78.8486 23.8867 78.4006 23.728 77.8966 23.728Z" fill="#123E6D"/>
<path d="M88.8757 22.566C89.0717 22.566 89.2304 22.6313 89.3517 22.762C89.4824 22.8833 89.5477 23.0467 89.5477 23.252V29.328C89.5477 29.5147 89.4824 29.6733 89.3517 29.804C89.2304 29.9347 89.0717 30 88.8757 30C88.6797 30 88.521 29.9393 88.3997 29.818C88.2784 29.6873 88.2177 29.524 88.2177 29.328V28.964C87.975 29.2907 87.6437 29.5707 87.2237 29.804C86.8037 30.028 86.351 30.14 85.8657 30.14C85.231 30.14 84.6524 29.9767 84.1297 29.65C83.6164 29.3233 83.2104 28.8707 82.9117 28.292C82.6224 27.704 82.4777 27.046 82.4777 26.318C82.4777 25.59 82.6224 24.9367 82.9117 24.358C83.2104 23.77 83.6164 23.3127 84.1297 22.986C84.643 22.6593 85.2077 22.496 85.8237 22.496C86.3184 22.496 86.7757 22.5987 87.1957 22.804C87.625 23.0093 87.9657 23.2707 88.2177 23.588V23.252C88.2177 23.056 88.2784 22.8927 88.3997 22.762C88.521 22.6313 88.6797 22.566 88.8757 22.566ZM86.0197 28.908C86.4584 28.908 86.8457 28.796 87.1817 28.572C87.527 28.348 87.793 28.04 87.9797 27.648C88.1757 27.256 88.2737 26.8127 88.2737 26.318C88.2737 25.8327 88.1757 25.394 87.9797 25.002C87.793 24.61 87.527 24.302 87.1817 24.078C86.8457 23.8447 86.4584 23.728 86.0197 23.728C85.581 23.728 85.189 23.84 84.8437 24.064C84.5077 24.288 84.2417 24.596 84.0457 24.988C83.859 25.38 83.7657 25.8233 83.7657 26.318C83.7657 26.8127 83.859 27.256 84.0457 27.648C84.2417 28.04 84.5077 28.348 84.8437 28.572C85.189 28.796 85.581 28.908 86.0197 28.908Z" fill="#123E6D"/>
<path d="M93.5133 23.966V28.138C93.5133 28.6047 93.7233 28.838 94.1433 28.838C94.2086 28.838 94.2973 28.824 94.4093 28.796C94.5213 28.7587 94.61 28.74 94.6753 28.74C94.7966 28.74 94.8993 28.7913 94.9833 28.894C95.0673 28.9967 95.1093 29.1273 95.1093 29.286C95.1093 29.482 94.9973 29.65 94.7733 29.79C94.5493 29.93 94.2973 30 94.0173 30C93.7093 30 93.4246 29.9673 93.1633 29.902C92.9113 29.8367 92.6826 29.6733 92.4773 29.412C92.2813 29.1413 92.1833 28.7353 92.1833 28.194V23.966H91.3713C91.194 23.966 91.0446 23.91 90.9233 23.798C90.8113 23.6767 90.7553 23.5273 90.7553 23.35C90.7553 23.1727 90.8113 23.028 90.9233 22.916C91.0446 22.804 91.194 22.748 91.3713 22.748H92.1833V21.572C92.1833 21.3853 92.244 21.2267 92.3653 21.096C92.496 20.9653 92.6593 20.9 92.8553 20.9C93.042 20.9 93.196 20.9653 93.3173 21.096C93.448 21.2267 93.5133 21.3853 93.5133 21.572V22.748H94.6753C94.8526 22.748 94.9973 22.8087 95.1093 22.93C95.2306 23.042 95.2913 23.1867 95.2913 23.364C95.2913 23.5413 95.2306 23.686 95.1093 23.798C94.9973 23.91 94.8526 23.966 94.6753 23.966H93.5133Z" fill="#123E6D"/>
<path d="M103.215 26.052C103.206 26.22 103.136 26.3647 103.005 26.486C102.875 26.598 102.721 26.654 102.543 26.654H97.6153C97.6806 27.3353 97.9373 27.8813 98.3853 28.292C98.8426 28.7027 99.398 28.908 100.051 28.908C100.499 28.908 100.863 28.8427 101.143 28.712C101.423 28.5813 101.671 28.4133 101.885 28.208C102.025 28.124 102.161 28.082 102.291 28.082C102.45 28.082 102.581 28.138 102.683 28.25C102.795 28.362 102.851 28.4927 102.851 28.642C102.851 28.838 102.758 29.0153 102.571 29.174C102.301 29.4447 101.941 29.6733 101.493 29.86C101.045 30.0467 100.588 30.14 100.121 30.14C99.3653 30.14 98.698 29.9813 98.1193 29.664C97.55 29.3467 97.1066 28.9033 96.7893 28.334C96.4813 27.7647 96.3273 27.1207 96.3273 26.402C96.3273 25.618 96.486 24.932 96.8033 24.344C97.13 23.7467 97.5546 23.2893 98.0773 22.972C98.6093 22.6547 99.1786 22.496 99.7853 22.496C100.383 22.496 100.943 22.65 101.465 22.958C101.988 23.266 102.408 23.6907 102.725 24.232C103.043 24.7733 103.206 25.38 103.215 26.052ZM99.7853 23.728C99.2626 23.728 98.81 23.8773 98.4273 24.176C98.0446 24.4653 97.7926 24.918 97.6713 25.534H101.801V25.422C101.755 24.9273 101.531 24.5213 101.129 24.204C100.737 23.8867 100.289 23.728 99.7853 23.728Z" fill="#123E6D"/>
<path d="M112.324 22.538C112.959 22.538 113.533 22.7013 114.046 23.028C114.56 23.3453 114.961 23.7933 115.25 24.372C115.549 24.9507 115.698 25.604 115.698 26.332C115.698 27.06 115.549 27.7133 115.25 28.292C114.961 28.8613 114.56 29.3093 114.046 29.636C113.533 29.9627 112.968 30.126 112.352 30.126C111.867 30.126 111.414 30.0187 110.994 29.804C110.574 29.5893 110.234 29.328 109.972 29.02V32.128C109.972 32.3147 109.907 32.4733 109.776 32.604C109.655 32.7347 109.496 32.8 109.3 32.8C109.114 32.8 108.955 32.7347 108.824 32.604C108.703 32.4827 108.642 32.324 108.642 32.128V23.322C108.642 23.126 108.703 22.9627 108.824 22.832C108.946 22.7013 109.104 22.636 109.3 22.636C109.496 22.636 109.655 22.7013 109.776 22.832C109.907 22.9627 109.972 23.126 109.972 23.322V23.728C110.196 23.4013 110.523 23.1213 110.952 22.888C111.382 22.6547 111.839 22.538 112.324 22.538ZM112.17 28.894C112.6 28.894 112.987 28.782 113.332 28.558C113.678 28.334 113.944 28.0307 114.13 27.648C114.326 27.256 114.424 26.8173 114.424 26.332C114.424 25.8467 114.326 25.4127 114.13 25.03C113.944 24.638 113.678 24.33 113.332 24.106C112.987 23.882 112.6 23.77 112.17 23.77C111.732 23.77 111.34 23.882 110.994 24.106C110.649 24.3207 110.378 24.624 110.182 25.016C109.996 25.408 109.902 25.8467 109.902 26.332C109.902 26.8173 109.996 27.256 110.182 27.648C110.378 28.04 110.649 28.348 110.994 28.572C111.34 28.7867 111.732 28.894 112.17 28.894Z" fill="#123E6D"/>
<path d="M120.896 22.496C121.139 22.496 121.349 22.5613 121.526 22.692C121.703 22.8133 121.792 22.9673 121.792 23.154C121.792 23.378 121.731 23.5507 121.61 23.672C121.498 23.784 121.358 23.84 121.19 23.84C121.106 23.84 120.98 23.812 120.812 23.756C120.616 23.6907 120.462 23.658 120.35 23.658C120.061 23.658 119.776 23.7607 119.496 23.966C119.225 24.162 119.001 24.4373 118.824 24.792C118.656 25.1373 118.572 25.5247 118.572 25.954V29.328C118.572 29.5147 118.507 29.6733 118.376 29.804C118.255 29.9347 118.096 30 117.9 30C117.704 30 117.545 29.9393 117.424 29.818C117.303 29.6873 117.242 29.524 117.242 29.328V23.336C117.242 23.1493 117.303 22.9907 117.424 22.86C117.555 22.7293 117.713 22.664 117.9 22.664C118.096 22.664 118.255 22.7293 118.376 22.86C118.507 22.9907 118.572 23.1493 118.572 23.336V24.05C118.777 23.5927 119.085 23.224 119.496 22.944C119.907 22.6547 120.373 22.5053 120.896 22.496Z" fill="#123E6D"/>
<path d="M129.655 26.332C129.655 27.06 129.492 27.7133 129.165 28.292C128.838 28.8707 128.39 29.3233 127.821 29.65C127.261 29.9767 126.64 30.14 125.959 30.14C125.278 30.14 124.652 29.9767 124.083 29.65C123.523 29.3233 123.08 28.8707 122.753 28.292C122.426 27.7133 122.263 27.06 122.263 26.332C122.263 25.604 122.426 24.946 122.753 24.358C123.08 23.77 123.523 23.3127 124.083 22.986C124.652 22.6593 125.278 22.496 125.959 22.496C126.64 22.496 127.261 22.6593 127.821 22.986C128.39 23.3127 128.838 23.77 129.165 24.358C129.492 24.946 129.655 25.604 129.655 26.332ZM128.325 26.332C128.325 25.828 128.218 25.38 128.003 24.988C127.798 24.5867 127.513 24.2787 127.149 24.064C126.794 23.84 126.398 23.728 125.959 23.728C125.52 23.728 125.119 23.84 124.755 24.064C124.4 24.2787 124.116 24.5867 123.901 24.988C123.696 25.38 123.593 25.828 123.593 26.332C123.593 26.8267 123.696 27.27 123.901 27.662C124.116 28.054 124.4 28.362 124.755 28.586C125.119 28.8007 125.52 28.908 125.959 28.908C126.398 28.908 126.794 28.8007 127.149 28.586C127.513 28.362 127.798 28.054 128.003 27.662C128.218 27.27 128.325 26.8267 128.325 26.332Z" fill="#123E6D"/>
<path d="M134.337 20.844C134.029 20.844 133.8 20.9373 133.651 21.124C133.511 21.3107 133.441 21.5393 133.441 21.81V22.79H134.827C135.014 22.79 135.163 22.8507 135.275 22.972C135.396 23.084 135.457 23.2287 135.457 23.406C135.457 23.5833 135.396 23.728 135.275 23.84C135.163 23.952 135.014 24.008 134.827 24.008H133.441V29.328C133.441 29.5147 133.376 29.6733 133.245 29.804C133.124 29.9347 132.965 30 132.769 30C132.582 30 132.424 29.9347 132.293 29.804C132.172 29.6733 132.111 29.5147 132.111 29.328V24.008H131.243C131.066 24.008 130.916 23.952 130.795 23.84C130.674 23.728 130.613 23.5833 130.613 23.406C130.613 23.2287 130.674 23.084 130.795 22.972C130.916 22.8507 131.066 22.79 131.243 22.79H132.111V21.81C132.111 21.1567 132.321 20.6387 132.741 20.256C133.161 19.864 133.754 19.668 134.519 19.668C134.836 19.668 135.116 19.7287 135.359 19.85C135.602 19.962 135.723 20.1347 135.723 20.368C135.723 20.5453 135.667 20.6947 135.555 20.816C135.452 20.928 135.326 20.984 135.177 20.984C135.14 20.984 135.037 20.9653 134.869 20.928C134.664 20.872 134.486 20.844 134.337 20.844ZM137.921 29.328C137.921 29.5147 137.856 29.6733 137.725 29.804C137.604 29.9347 137.445 30 137.249 30C137.062 30 136.904 29.9347 136.773 29.804C136.652 29.6733 136.591 29.5147 136.591 29.328V23.266C136.591 23.0793 136.652 22.9207 136.773 22.79C136.904 22.6593 137.062 22.594 137.249 22.594C137.445 22.594 137.604 22.6593 137.725 22.79C137.856 22.9207 137.921 23.0793 137.921 23.266V29.328ZM137.249 21.67C136.978 21.67 136.782 21.6233 136.661 21.53C136.549 21.4273 136.493 21.2687 136.493 21.054V20.83C136.493 20.606 136.554 20.4473 136.675 20.354C136.806 20.2607 137.002 20.214 137.263 20.214C137.524 20.214 137.711 20.2653 137.823 20.368C137.944 20.4613 138.005 20.6153 138.005 20.83V21.054C138.005 21.278 137.944 21.4367 137.823 21.53C137.702 21.6233 137.51 21.67 137.249 21.67Z" fill="#123E6D"/>
<path d="M141.284 29.328C141.284 29.5147 141.218 29.6733 141.088 29.804C140.957 29.9347 140.798 30 140.612 30C140.425 30 140.266 29.9347 140.136 29.804C140.014 29.6733 139.954 29.5147 139.954 29.328V20.312C139.954 20.1253 140.019 19.9667 140.15 19.836C140.28 19.7053 140.439 19.64 140.626 19.64C140.812 19.64 140.966 19.7053 141.088 19.836C141.218 19.9667 141.284 20.1253 141.284 20.312V29.328Z" fill="#123E6D"/>
<path d="M149.686 26.052C149.677 26.22 149.607 26.3647 149.476 26.486C149.345 26.598 149.191 26.654 149.014 26.654H144.086C144.151 27.3353 144.408 27.8813 144.856 28.292C145.313 28.7027 145.869 28.908 146.522 28.908C146.97 28.908 147.334 28.8427 147.614 28.712C147.894 28.5813 148.141 28.4133 148.356 28.208C148.496 28.124 148.631 28.082 148.762 28.082C148.921 28.082 149.051 28.138 149.154 28.25C149.266 28.362 149.322 28.4927 149.322 28.642C149.322 28.838 149.229 29.0153 149.042 29.174C148.771 29.4447 148.412 29.6733 147.964 29.86C147.516 30.0467 147.059 30.14 146.592 30.14C145.836 30.14 145.169 29.9813 144.59 29.664C144.021 29.3467 143.577 28.9033 143.26 28.334C142.952 27.7647 142.798 27.1207 142.798 26.402C142.798 25.618 142.957 24.932 143.274 24.344C143.601 23.7467 144.025 23.2893 144.548 22.972C145.08 22.6547 145.649 22.496 146.256 22.496C146.853 22.496 147.413 22.65 147.936 22.958C148.459 23.266 148.879 23.6907 149.196 24.232C149.513 24.7733 149.677 25.38 149.686 26.052ZM146.256 23.728C145.733 23.728 145.281 23.8773 144.898 24.176C144.515 24.4653 144.263 24.918 144.142 25.534H148.272V25.422C148.225 24.9273 148.001 24.5213 147.6 24.204C147.208 23.8867 146.76 23.728 146.256 23.728Z" fill="#123E6D"/>
<path d="M151.874 27.06C151.613 27.06 151.473 26.9107 151.454 26.612L151.146 21.04C151.128 20.7973 151.184 20.5967 151.314 20.438C151.454 20.2793 151.636 20.2 151.86 20.2C152.094 20.2 152.276 20.2793 152.406 20.438C152.537 20.5967 152.593 20.7973 152.574 21.04L152.28 26.612C152.271 26.7613 152.229 26.8733 152.154 26.948C152.089 27.0227 151.996 27.06 151.874 27.06ZM151.79 30C151.566 30 151.394 29.9393 151.272 29.818C151.16 29.6873 151.104 29.51 151.104 29.286V29.02C151.104 28.796 151.16 28.6233 151.272 28.502C151.394 28.3713 151.566 28.306 151.79 28.306H151.944C152.168 28.306 152.336 28.3713 152.448 28.502C152.57 28.6233 152.63 28.796 152.63 29.02V29.286C152.63 29.51 152.57 29.6873 152.448 29.818C152.336 29.9393 152.168 30 151.944 30H151.79Z" fill="#123E6D"/>
</svg>
