<svg width="41" height="39" viewBox="0 0 41 39" fill="none" xmlns="http://www.w3.org/2000/svg">
<path d="M35.3557 26.6903C34.1741 26.0979 32.9582 25.5752 31.7144 25.125C34.1309 22.5943 35.4544 19.4896 33.5581 16.1827C33.3465 15.8102 33.1089 15.4527 32.8469 15.113C33.9163 14.3129 34.8633 13.3638 35.6586 12.2953C39.7344 6.7121 35.54 0.554912 28.5011 0.00702651C26.3941 -0.162557 26.4072 2.79211 28.5011 2.96821C31.8461 3.22911 34.8552 5.68807 33.8675 8.87755C33.2574 10.5249 32.1196 11.9292 30.6279 12.8758C26.7825 9.83635 20.9881 8.38184 16.2604 8.02311C11.5327 7.66437 1.28047 8.14704 0.115003 13.7824C-1.20191 20.0244 9.12929 21.4594 13.8241 21.1137C18.7889 20.7419 25.1496 19.5091 30.0485 16.9002C31.7802 19.4113 30.5621 21.9355 28.2707 24.0357C23.0606 22.61 17.6672 21.9507 12.2635 22.079C9.48486 22.1638 6.40327 22.7834 4.61885 24.8641C2.83443 26.9447 3.47972 29.6059 5.61971 31.3278C10.9401 35.6131 20.198 32.3714 25.4722 29.6515C26.6652 29.0414 27.8118 28.346 28.9028 27.5709C33.4461 29.0058 41.5781 32.4823 36.1458 36.5458C34.5194 37.7655 36.8569 39.8461 38.4768 38.6329C43.5798 34.7847 40.1229 29.0841 35.3557 26.6903ZM11.5063 18.2112C9.59349 18.2424 7.69408 17.8896 5.9226 17.1741C4.37522 16.4566 2.74225 14.9826 4.00649 13.3063C5.42217 11.4278 9.81408 11.0821 12.0463 10.9321C17.3929 10.5799 23.2005 11.6887 27.5595 14.5782C22.8845 16.7828 16.7081 18.3286 11.5063 18.2242V18.2112ZM23.2927 27.3035C20.7129 28.5895 17.9615 29.5053 15.1213 30.0233C13.3545 30.4169 11.5216 30.4169 9.75483 30.0233C6.93004 29.2211 5.98186 27.1469 9.00418 25.5554C11.5129 24.251 15.8851 25.0923 18.6177 25.438C20.6984 25.6989 22.766 26.0446 24.8072 26.4947C24.3265 26.7817 23.8195 27.0556 23.2927 27.3035Z" fill="#123E6D"/>
</svg>
