<svg id="Capa_1" data-name="Capa 1" xmlns="http://www.w3.org/2000/svg" viewBox="0 0 118.95 90.14"><defs><style>.cls-1{fill:#f90bed;}.cls-2{fill:#ea57ff;}.cls-3{fill:#253546;}</style></defs><title>lapiz</title><circle class="cls-1" cx="57.12" cy="47.02" r="26.87"/><polygon class="cls-2" points="96.73 22.58 58.66 54.81 67.56 54.73 100.71 27.41 96.73 22.58"/><path class="cls-3" d="M101.87,26.46l-8-9.66a1.5,1.5,0,0,0-2.11-.21l-5.49,4.53L58.65,43.91a1.49,1.49,0,0,0-.54,1l-.94,9.74a1.54,1.54,0,0,0,.39,1.16,1.51,1.51,0,0,0,1,.49h.11l8.9-.08a1.54,1.54,0,0,0,.93-.34l27.66-22.8,5.49-4.52a1.49,1.49,0,0,0,.21-2.11ZM67,53.24l-6.71.06L61,45.83l26-21.44,6.05,7.35Zm28.4-23.41-6.05-7.34,3.18-2.62,6.05,7.34Z"/><path class="cls-3" d="M69.52,60.54H45.33a1.5,1.5,0,0,1,0-3H69.52a1.5,1.5,0,0,1,0,3Z"/></svg>