<svg width="92" height="129" viewBox="0 0 92 129" fill="none" xmlns="http://www.w3.org/2000/svg">
<g filter="url(#filter0_d)">
<path d="M84.7044 76.2115C84.7011 78.0824 84.1383 79.9099 83.0878 81.4607C82.0374 83.0115 80.547 84.2154 78.8068 84.9186C77.0666 85.6218 75.1555 85.7925 73.3175 85.4089C71.4795 85.0253 69.7979 84.1048 68.4873 82.7649C61.8725 87.2938 54.0348 89.7182 46.0086 89.7182C37.9823 89.7182 30.1447 87.2938 23.5298 82.7649C22.6371 83.6693 21.5702 84.3846 20.393 84.8679C19.2159 85.3513 17.9528 85.5926 16.6797 85.5775C15.4066 85.5624 14.1497 85.2911 12.9845 84.7799C11.8193 84.2687 10.7697 83.5283 9.89891 82.6029C9.02809 81.6776 8.35396 80.5864 7.91698 79.395C7.48 78.2036 7.2892 76.9366 7.35602 75.6699C7.42284 74.4032 7.74591 73.163 8.30583 72.0238C8.86575 70.8846 9.65098 69.8699 10.6144 69.0405C6.75995 62.5132 4.52021 55.1657 4.08029 47.6052C3.64036 40.0448 5.01288 32.4887 8.08439 25.5613C7.20523 21.7805 3.70755 4.86771 9.81109 2.0321C15.0608 -0.419117 20.9746 4.51483 23.4919 6.99756C30.1204 2.44054 37.9835 0 46.037 0C54.0906 0 61.9537 2.44054 68.5822 6.99756C71.0742 4.62826 77.0196 -0.412812 82.2693 2.06992C88.4298 4.93702 84.7993 22.1271 83.9644 25.7062C87.0103 32.6221 88.3647 40.1596 87.9161 47.6988C87.4674 55.2379 85.2286 62.5632 81.3838 69.0721C82.4228 69.9519 83.2577 71.0459 83.831 72.2785C84.4043 73.5111 84.7023 74.853 84.7044 76.2115V76.2115Z" fill="#0EDA87"/>
</g>
<path d="M45.724 36.6706C45.724 36.6706 28.0143 35.8703 24.0106 44.9064C24.0106 44.9064 18.5142 59.7902 34.8641 57.9313C51.214 56.0724 57.3366 58.0951 57.3366 58.0951C57.3366 58.0951 72.042 60.6157 68.2913 45.9777C68.2976 45.9777 65.8752 36.658 45.724 36.6706Z" fill="#253546"/>
<path d="M41.0173 46.6746C41.9116 45.1315 41.8101 43.4052 40.7906 42.8188C39.7711 42.2323 38.2197 43.0079 37.3255 44.551C36.4312 46.0941 36.5327 47.8204 37.5522 48.4068C38.5717 48.9932 40.1231 48.2177 41.0173 46.6746Z" fill="#0EDA87"/>
<path d="M52.8267 48.7082C53.9547 48.3728 54.4545 46.7167 53.9429 45.0094C53.4314 43.302 52.1022 42.1898 50.9742 42.5252C49.8462 42.8607 49.3465 44.5167 49.858 46.2241C50.3696 47.9315 51.6987 49.0437 52.8267 48.7082Z" fill="#0EDA87"/>
<path d="M61.9853 27.4895C61.7271 26.6216 61.2965 25.8143 60.719 25.1154C60.1415 24.4166 59.429 23.8405 58.6236 23.4214C57.8183 23.0023 56.9366 22.7488 56.031 22.6758C55.1254 22.6028 54.2142 22.7119 53.3518 22.9967C52.3967 23.3306 52.8078 24.8555 53.7692 24.5153C54.4317 24.2839 55.1343 24.1888 55.8347 24.2356C56.5351 24.2825 57.2187 24.4703 57.8442 24.7878C58.4696 25.1052 59.024 25.5457 59.4738 26.0827C59.9235 26.6196 60.2594 27.2418 60.461 27.9117C60.5215 28.1072 60.6559 28.2716 60.8359 28.37C61.0159 28.4685 61.2273 28.4934 61.4253 28.4393C61.6234 28.3853 61.7925 28.2566 61.8971 28.0805C62.0016 27.9044 62.0332 27.6947 61.9853 27.4958V27.4895Z" fill="#253546"/>
<path d="M24.4218 62.5123C26.1095 64.6681 28.349 66.3312 30.9049 67.3266C31.8473 67.7046 32.2584 66.1797 31.3223 65.8079C29.0339 64.8795 27.0375 63.3562 25.5413 61.397C24.9089 60.5967 23.8083 61.7184 24.4218 62.5123Z" fill="#253546"/>
<path d="M24.9658 61.92C25.9272 62.1916 26.9399 62.2305 27.9195 62.0334C28.4192 61.9389 28.2041 61.1765 27.7108 61.271C26.8704 61.4344 26.003 61.3955 25.1808 61.1576C25.0832 61.1408 24.9828 61.161 24.8992 61.214C24.8157 61.267 24.7549 61.3491 24.7289 61.4444C24.7028 61.5396 24.7133 61.6411 24.7583 61.729C24.8032 61.8169 24.8795 61.885 24.9721 61.92H24.9658Z" fill="#253546"/>
<path d="M31.5751 27.9117C31.7767 27.2418 32.1125 26.6196 32.5623 26.0827C33.012 25.5457 33.5664 25.1052 34.1919 24.7878C34.8174 24.4703 35.501 24.2825 36.2013 24.2356C36.9017 24.1888 37.6044 24.2839 38.2668 24.5153C39.2282 24.8555 39.6393 23.3306 38.6843 22.9967C37.8218 22.7119 36.9107 22.6028 36.0051 22.6758C35.0994 22.7488 34.2178 23.0023 33.4124 23.4214C32.6071 23.8405 31.8945 24.4166 31.317 25.1154C30.7395 25.8143 30.3089 26.6216 30.0508 27.4895C30.0028 27.6884 30.0345 27.8981 30.139 28.0742C30.2435 28.2503 30.4127 28.379 30.6107 28.433C30.8088 28.4871 31.0201 28.4622 31.2001 28.3637C31.3801 28.2653 31.5146 28.1009 31.5751 27.9054V27.9117Z" fill="#253546"/>
<path d="M61.8027 113.788C60.3607 113.056 58.8768 112.41 57.3588 111.854C60.308 108.727 61.9232 104.89 59.6088 100.804C59.3506 100.343 59.0606 99.9017 58.741 99.4819C60.0461 98.4931 61.2018 97.3204 62.1723 96C67.1466 89.1006 62.0277 81.4919 53.4372 80.8148C50.8657 80.6053 50.8818 84.2565 53.4372 84.4741C57.5195 84.7965 61.1919 87.8351 59.9865 91.7765C59.2418 93.8122 57.8532 95.5475 56.0328 96.7173C51.3398 92.9613 44.2681 91.1639 38.4983 90.7206C32.7284 90.2773 20.2164 90.8738 18.794 97.8377C17.1868 105.551 29.7953 107.324 35.525 106.897C41.5841 106.438 49.3469 104.914 55.3257 101.69C57.4391 104.793 55.9525 107.913 53.1559 110.508C46.7974 108.746 40.2152 107.932 33.6204 108.09C30.2293 108.195 26.4684 108.961 24.2907 111.532C22.1129 114.103 22.9004 117.391 25.5121 119.519C32.0052 124.815 43.3038 120.809 49.7406 117.448C51.1966 116.694 52.5959 115.834 53.9274 114.877C59.4722 116.65 69.3967 120.946 62.767 125.967C60.7821 127.474 63.6349 130.046 65.6117 128.546C71.8396 123.791 67.6207 116.747 61.8027 113.788ZM32.6963 103.31C30.3618 103.349 28.0437 102.913 25.8818 102.029C23.9933 101.142 22.0004 99.3207 23.5433 97.2493C25.271 94.928 30.6311 94.5008 33.3553 94.3154C39.8805 93.8802 46.9682 95.2504 52.2881 98.821C46.5825 101.545 39.0447 103.455 32.6963 103.327V103.31ZM47.0807 114.546C43.9323 116.135 40.5744 117.267 37.1081 117.907C34.9519 118.394 32.7149 118.394 30.5587 117.907C27.1113 116.916 25.9541 114.353 29.6426 112.386C32.7043 110.774 38.0402 111.814 41.3752 112.241C43.9146 112.563 46.4379 112.991 48.929 113.547C48.3424 113.901 47.7236 114.24 47.0807 114.546Z" fill="#0EDA87"/>
<defs>
<filter id="filter0_d" x="0" y="0" width="92" height="97.7182" filterUnits="userSpaceOnUse" color-interpolation-filters="sRGB">
<feFlood flood-opacity="0" result="BackgroundImageFix"/>
<feColorMatrix in="SourceAlpha" type="matrix" values="0 0 0 0 0 0 0 0 0 0 0 0 0 0 0 0 0 0 127 0"/>
<feOffset dy="4"/>
<feGaussianBlur stdDeviation="2"/>
<feColorMatrix type="matrix" values="0 0 0 0 0 0 0 0 0 0 0 0 0 0 0 0 0 0 0.15 0"/>
<feBlend mode="normal" in2="BackgroundImageFix" result="effect1_dropShadow"/>
<feBlend mode="normal" in="SourceGraphic" in2="effect1_dropShadow" result="shape"/>
</filter>
</defs>
</svg>
