<svg width="128" height="177" viewBox="0 0 128 177" fill="none" xmlns="http://www.w3.org/2000/svg">
<path d="M80.8737 160.732C79.4126 159.957 77.7796 159.268 76.1467 158.665C79.3266 155.305 81.0455 151.255 78.5531 146.861C78.2953 146.345 77.9515 145.914 77.6078 145.483C79.0688 144.363 80.272 143.157 81.3034 141.778C86.6319 134.369 81.1315 126.27 71.9354 125.581C69.1852 125.323 69.1852 129.286 71.9354 129.458C76.3186 129.803 80.272 133.077 78.9829 137.298C78.2953 139.452 76.6624 141.175 74.7716 142.554C69.7868 138.504 62.2237 136.609 56.0357 136.178C49.7617 135.661 36.4403 136.351 34.9792 143.76C33.2604 152.031 46.7537 153.926 52.8557 153.409C59.3016 152.892 67.6382 151.255 73.9981 147.809C76.2326 151.083 74.6856 154.443 71.6776 157.2C64.802 155.305 57.2389 154.357 50.793 154.615C47.1834 154.702 43.144 155.563 40.8235 158.32C38.417 161.163 39.3624 164.609 42.1126 166.849C48.9882 172.449 61.0205 168.142 67.896 164.609C69.3571 163.834 70.9041 162.886 72.3651 161.852C78.2953 163.748 88.9524 168.314 81.819 173.742C79.6704 175.379 82.7644 178.136 84.8271 176.499C91.5308 171.416 87.0617 163.92 80.8737 160.732ZM49.6758 149.532C47.2693 149.446 44.605 149.188 42.3705 148.154C40.3078 147.206 38.2451 145.225 39.8781 143.071C41.7689 140.572 47.4412 140.141 50.3633 139.969C57.3248 139.538 64.888 141.003 70.6462 144.794C64.5442 147.637 56.4654 149.705 49.6758 149.532ZM65.1458 161.508C61.794 163.145 58.1843 164.437 54.4887 165.126C52.2541 165.557 49.7617 165.729 47.4412 165.126C43.7456 164.092 42.5424 161.335 46.4958 159.182C49.7617 157.459 55.52 158.579 59.0437 159.009C61.794 159.354 64.4582 159.785 67.1225 160.388C66.435 160.819 65.7474 161.163 65.1458 161.508Z" fill="#5CD9EA"/>
<path d="M109.665 114.123C109.665 121.274 103.907 127.046 96.8595 127.046C93.2499 127.046 89.984 125.581 87.6635 123.169C78.8112 129.2 68.3259 132.646 57.1531 132.646C45.8944 132.646 35.4092 129.2 26.6428 123.169C24.3223 125.581 21.0564 127.046 17.4467 127.046C10.3133 127.046 4.64101 121.274 4.64101 114.123C4.64101 110.246 6.3599 106.713 9.11012 104.301C3.26589 94.8241 0 83.4516 0 71.3038C0 61.8268 1.97673 52.8667 5.50045 44.9405C4.29723 39.7712 -0.429723 16.6817 7.82096 12.8047C14.9544 9.44471 22.9472 16.1648 26.385 19.611C35.2373 13.5801 45.7225 10.0478 56.9813 10.0478C68.24 10.0478 78.8112 13.5801 87.6635 19.611C91.0153 16.2509 99.0941 9.44471 106.313 12.8047C114.65 16.6817 109.751 40.2019 108.634 45.1128C112.158 53.039 114.134 61.9991 114.134 71.39C114.134 83.5378 110.868 94.9102 105.11 104.473C107.946 106.713 109.665 110.246 109.665 114.123Z" fill="#5CD9EA"/>
<path d="M110.267 5.91229C110.697 4.3615 111.126 2.89687 111.556 1.34609C111.9 -0.032388 109.837 -0.549316 109.493 0.743005C109.064 2.29379 108.634 3.75842 108.204 5.30921C107.86 6.68768 109.923 7.29077 110.267 5.91229Z" fill="#253546"/>
<path d="M114.478 11.6846C118.689 9.1861 122.815 6.77376 127.026 4.27528C128.229 3.58604 127.112 1.69063 125.909 2.37987C121.698 4.87836 117.572 7.29069 113.361 9.78918C112.158 10.5646 113.275 12.3738 114.478 11.6846Z" fill="#253546"/>
<path d="M115.853 18.8355C117.572 19.1801 119.291 19.6109 121.01 19.9555C122.385 20.214 122.901 18.1463 121.612 17.8878C119.893 17.5432 118.174 17.1124 116.455 16.7678C115.08 16.4232 114.564 18.4909 115.853 18.8355Z" fill="#253546"/>
<path d="M56.7235 56.5712C56.7235 56.5712 32.659 55.4512 27.2445 67.8575C27.2445 67.8575 19.7674 88.19 42.027 85.6915C64.2866 83.1069 72.5373 85.95 72.5373 85.95C72.5373 85.95 92.5624 89.3962 87.4057 69.4083C87.3198 69.3221 84.0539 56.5712 56.7235 56.5712Z" fill="#123E6D"/>
<path d="M50.3281 70.265C51.5385 68.1635 51.3868 65.8041 49.9892 64.9952C48.5916 64.1863 46.4774 65.2342 45.267 67.3357C44.0566 69.4372 44.2084 71.7965 45.606 72.6054C47.0036 73.4143 49.1177 72.3665 50.3281 70.265Z" fill="#5CD9EA"/>
<path d="M66.315 73.0247C67.8613 72.562 68.5537 70.302 67.8613 67.9767C67.169 65.6515 65.3542 64.1416 63.8078 64.6042C62.2614 65.0669 61.5691 67.327 62.2614 69.6522C62.9537 71.9775 64.7686 73.4874 66.315 73.0247Z" fill="#5CD9EA"/>
<path d="M43.316 45.8881C46.0662 45.8881 46.0662 41.5803 43.316 41.5803C40.5657 41.5803 40.4798 45.8881 43.316 45.8881Z" fill="#253546"/>
<path d="M68.7557 45.3712C71.5059 45.3712 71.5059 41.0635 68.7557 41.0635C66.0054 41.0635 66.0054 45.3712 68.7557 45.3712Z" fill="#253546"/>
<path d="M48.2149 89.4824C43.1441 95.0825 35.2372 95.4271 29.8227 90.1716C28.9633 89.3101 27.4163 90.4301 28.1038 91.464C30.7681 95.5994 30.5103 102.233 34.9794 105.163C37.7296 106.972 41.3393 106.455 43.1441 103.698C43.9176 102.578 42.0269 101.458 41.2534 102.578C39.1907 105.679 35.7529 103.526 34.3778 101.372C33.5183 100.079 33.0886 98.4425 32.6589 96.9779C31.9713 94.5655 31.2838 92.4117 29.9087 90.344C29.3071 90.7747 28.7914 91.2055 28.1898 91.6363C34.4637 97.6671 43.7457 97.4948 49.59 90.947C50.7073 89.9132 49.1603 88.4486 48.2149 89.4824Z" fill="#253546"/>
<path d="M24.7521 91.3778C25.5256 90.3439 26.2991 89.3101 27.0726 88.1901C27.4164 87.7593 27.1586 86.9839 26.7288 86.7254C26.2132 86.3808 25.6116 86.6393 25.2678 87.07C24.4943 88.1039 23.7208 89.1378 22.9473 90.2578C22.6035 90.6885 22.8613 91.4639 23.291 91.7224C23.8067 92.067 24.4083 91.8947 24.7521 91.3778Z" fill="#253546"/>
</svg>
