<svg id="Capa_1" data-name="Capa 1" xmlns="http://www.w3.org/2000/svg" viewBox="0 0 200.43 285"><defs><style>.cls-1{fill:#f90bed;}.cls-2{fill:#253546;}.cls-3{fill:#ea57ff;}.cls-4{fill:none;stroke:#253546;stroke-miterlimit:10;stroke-width:3px;}</style></defs><title>piguRegister</title><path class="cls-1" d="M99.7,196.32c5.08.45,9.65,4.59,8.15,10-1.2,4.31-5.12,7.27-8.87,9.3-7.18,3.88-16.93,6.68-25.09,6.49a19.63,19.63,0,0,1-8.48-1.75c-2.35-1.21-4.83-3.7-2.91-6.53,2.15-3.17,8.82-3.76,12.21-4,8.2-.61,17.13,1.32,23.78,6.33,10.49,7.9,1.75,16.71-6.66,21.31A43.45,43.45,0,0,1,79.41,242a16.86,16.86,0,0,1-8.15,0c-4.29-1.35-5.73-4.86-1.14-7.55,3.82-2.24,10.46-.78,14.6-.2A98.06,98.06,0,0,1,97.6,237c5.3,1.48,23.23,8.1,13.74,16-2.47,2.06,1.08,5.58,3.54,3.54,7.73-6.45,2.48-16.07-4.76-20.12-9.85-5.51-23.84-8.23-35.07-7.86-4.22.14-8.89,1.19-11.61,4.71s-1.73,8,1.52,10.92c8.08,7.24,22.15,1.76,30.15-2.83,7.6-4.36,17.26-13,12.28-22.69-4.65-9-16.86-13-26.27-13.8-7.31-.62-22.75.22-24.52,9.74-2,10.54,13.69,13,20.82,12.37,11.06-.92,26.67-5,33.17-14.87,6.19-9.44-.18-19.83-10.87-20.77-3.2-.28-3.19,4.72,0,5Z"/><ellipse class="cls-1" cx="82.47" cy="128.46" rx="66.42" ry="71.17"/><circle class="cls-1" cx="36.22" cy="178.15" r="14.94"/><circle class="cls-1" cx="128.7" cy="178.15" r="14.94"/><path class="cls-1" d="M22.79,99s-8.45-33.47,2.44-38.55,23.59,10,23.59,10"/><path class="cls-1" d="M142.27,99s8.45-33.47-2.44-38.55-23.59,10-23.59,10"/><path class="cls-2" d="M82,115.4s-28-1.27-34.33,13.07c0,0-8.69,23.62,17.16,20.67s35.53.26,35.53.26,23.25,4,17.32-19.23C117.69,130.17,113.87,115.38,82,115.4Z"/><ellipse class="cls-2" cx="98.19" cy="102.66" rx="3.04" ry="3.62"/><ellipse class="cls-2" cx="63.93" cy="102.66" rx="3.04" ry="3.62"/><ellipse class="cls-3" cx="71.65" cy="129.59" rx="5.12" ry="3.37" transform="translate(-76.4 126.85) rotate(-60)"/><ellipse class="cls-3" cx="91.78" cy="129.59" rx="3.37" ry="5.12" transform="translate(-33.23 31.67) rotate(-16.62)"/><circle class="cls-4" cx="63.93" cy="103.52" r="15.91"/><circle class="cls-4" cx="98.19" cy="103.52" r="15.91"/><polygon class="cls-3" points="182.22 17.72 144.15 49.95 153.05 49.87 186.19 22.55 182.22 17.72"/><path class="cls-2" d="M187.35,21.6l-8-9.66a1.5,1.5,0,0,0-2.11-.21l-5.49,4.53L144.13,39a1.49,1.49,0,0,0-.54,1l-.94,9.74A1.54,1.54,0,0,0,143,51a1.51,1.51,0,0,0,1,.49h.11l8.9-.08A1.54,1.54,0,0,0,154,51l27.66-22.8,5.49-4.52a1.49,1.49,0,0,0,.21-2.11ZM152.51,48.37l-6.71.06.72-7.47,26-21.44,6.05,7.35ZM180.91,25l-6.05-7.34L178,15l6.05,7.34Z"/><path class="cls-2" d="M155,55.68H130.82a1.5,1.5,0,0,1,0-3H155a1.5,1.5,0,0,1,0,3Z"/><path class="cls-2" d="M46,155.09a33.15,33.15,0,0,0,6.29,6.71,1.94,1.94,0,0,0,2.65,0,1.89,1.89,0,0,0,0-2.65,29.83,29.83,0,0,1-5.71-6c-1.39-1.95-4.64-.08-3.24,1.89Z"/></svg>