<svg id="Capa_1" data-name="Capa 1" xmlns="http://www.w3.org/2000/svg" viewBox="0 0 358.61 277.33"><defs><style>.cls-1,.cls-3{fill:#f7ea03;}.cls-2,.cls-4{fill:#253546;}.cls-3{opacity:0.5;}.cls-4{font-size:18px;font-family:Quicksand-Bold, Quicksand;font-weight:700;}.cls-5{letter-spacing:0.03em;}.cls-6{letter-spacing:-0.01em;}.cls-7{letter-spacing:-0.03em;}.cls-8{letter-spacing:-0.06em;}.cls-9{letter-spacing:-0.06em;}.cls-10{letter-spacing:-0.09em;}.cls-11{letter-spacing:-0.03em;}</style></defs><title>piguTips</title><path class="cls-1" d="M96.51,175.09c5.08.45,9.65,4.59,8.15,10-1.2,4.31-5.12,7.27-8.87,9.3-7.18,3.88-16.93,6.68-25.09,6.49a19.63,19.63,0,0,1-8.48-1.75c-2.35-1.21-4.83-3.7-2.91-6.53,2.15-3.17,8.82-3.76,12.21-4,8.2-.61,17.13,1.32,23.78,6.33,10.49,7.9,1.75,16.71-6.66,21.31a43.45,43.45,0,0,1-12.42,4.6,16.86,16.86,0,0,1-8.15,0c-4.29-1.35-5.73-4.86-1.14-7.55,3.82-2.24,10.46-.78,14.6-.2a98.06,98.06,0,0,1,12.88,2.68c5.3,1.48,23.23,8.1,13.74,16-2.47,2.06,1.08,5.58,3.54,3.54,7.73-6.45,2.48-16.07-4.76-20.12-9.85-5.51-23.84-8.23-35.07-7.86-4.22.14-8.89,1.19-11.61,4.71s-1.73,8,1.52,10.92c8.08,7.24,22.15,1.76,30.15-2.83,7.6-4.36,17.26-13,12.28-22.69-4.65-9-16.86-13-26.27-13.8-7.31-.62-22.75.22-24.52,9.74-2,10.54,13.69,13,20.82,12.37,11.06-.92,26.67-5,33.17-14.87,6.19-9.44-.18-19.83-10.87-20.77-3.2-.28-3.19,4.72,0,5Z"/><ellipse class="cls-1" cx="79.28" cy="107.23" rx="66.42" ry="71.17"/><circle class="cls-1" cx="33.02" cy="156.92" r="14.94"/><circle class="cls-1" cx="125.51" cy="156.92" r="14.94"/><path class="cls-1" d="M19.6,77.81S11.15,44.34,22,39.26s23.59,10,23.59,10"/><path class="cls-1" d="M139.07,77.81s8.45-33.47-2.44-38.55-23.59,10-23.59,10"/><path class="cls-2" d="M78.82,94.17s-28-1.27-34.33,13.07c0,0-8.69,23.62,17.16,20.67s35.53.26,35.53.26,23.25,4,17.32-19.23C114.5,108.94,110.68,94.14,78.82,94.17Z"/><ellipse class="cls-2" cx="95" cy="81.43" rx="3.04" ry="3.62"/><ellipse class="cls-2" cx="60.73" cy="81.43" rx="3.04" ry="3.62"/><ellipse class="cls-1" cx="68.46" cy="108.36" rx="5.12" ry="3.37" transform="translate(-59.61 113.46) rotate(-60)"/><ellipse class="cls-1" cx="88.59" cy="108.36" rx="3.37" ry="5.12" transform="translate(-27.29 29.87) rotate(-16.62)"/><circle class="cls-1" cx="192.31" cy="38.21" r="26.87"/><path class="cls-2" d="M211.49,67.59a2.85,2.85,0,0,1-1.26-.29L158.8,42.08a2.86,2.86,0,0,1-.23-5L204.12,9.23a2.86,2.86,0,0,1,4.33,2.12l5.87,53.07a2.86,2.86,0,0,1-2.84,3.17ZM166,39.24l42.09,20.65-4.81-43.43Z"/><path class="cls-2" d="M193.52,39.18A2.86,2.86,0,0,1,191,35.07l5.1-10.4a2.86,2.86,0,0,1,5.13,2.51l-5.1,10.4A2.86,2.86,0,0,1,193.52,39.18Z"/><path class="cls-2" d="M189.84,46.58c3.22,0,3.22-5,0-5s-3.22,5,0,5Z"/><path class="cls-2" d="M43.4,115a33.15,33.15,0,0,0,6.29,6.71,1.94,1.94,0,0,0,2.65,0,1.89,1.89,0,0,0,0-2.65,29.83,29.83,0,0,1-5.71-6C45.25,111.13,42,113,43.4,115Z"/><path class="cls-3" d="M193.17,88.75H307.48c17.64,0,32.08,11.6,32.08,25.78V246.22c0,14.18-14.43,25.78-32.08,25.78H212c-17.64,0-32.08-11.6-32.08-25.78V120.75c0-.2,0-.4,0-.61.13-2.53.57-24.83-22.76-31.4-17.45-4.91,20.18-.87,28-.12C186,88.71,192.36,88.75,193.17,88.75Z"/><text class="cls-4" transform="translate(237.12 138.87)">H<tspan class="cls-5" x="12.76" y="0">e</tspan><tspan x="24.28" y="0">y! </tspan><tspan x="-25.47" y="21.6">PIGU TIPS </tspan><tspan x="-26.75" y="43.2">..</tspan><tspan class="cls-6" x="-18.47" y="43.2">L</tspan><tspan x="-8.51" y="43.2">oading...</tspan><tspan class="cls-7" x="-17.63" y="64.8">N</tspan><tspan x="-4.38" y="64.8">ICE </tspan><tspan class="cls-8" x="31.06" y="64.8">T</tspan><tspan x="41.73" y="64.8">O </tspan><tspan class="cls-9" x="-11.65" y="86.4">H</tspan><tspan class="cls-10" x="-0.05" y="86.4">A</tspan><tspan class="cls-11" x="9.95" y="86.4">V</tspan><tspan x="22.91" y="86.4">E :)</tspan></text><path class="cls-2" d="M53,144c1.15,2,2.79,4.34,5.16,5,2.92.86,4-1,6-2.62s5.19-.18,7.27-2.42a3.59,3.59,0,0,0,.15-5.18c-1.64-1.78-4.29.88-2.65,2.65.06.07-3.51.44-3.84.5a5.94,5.94,0,0,0-2.67,1c-1.08.77-1.83,2.59-3.48,2.32-1.14-.18-2.16-2.28-2.67-3.19C55,140,51.77,141.85,53,144Z"/></svg>