<svg id="Capa_1" data-name="Capa 1" xmlns="http://www.w3.org/2000/svg" viewBox="0 0 200.43 285"><defs><style>.cls-1{fill:#f90bed;}.cls-2{fill:#253546;}.cls-3{fill:#ea57ff;}.cls-4{fill:none;stroke:#253546;stroke-miterlimit:10;stroke-width:3px;}</style></defs><title>pigu-pink</title><path class="cls-1" d="M118.46,172.8c5.08.45,9.65,4.59,8.15,10-1.2,4.31-5.12,7.27-8.87,9.3-7.18,3.88-16.93,6.68-25.09,6.49a19.63,19.63,0,0,1-8.48-1.75c-2.35-1.21-4.83-3.7-2.91-6.53,2.15-3.17,8.82-3.76,12.21-4,8.2-.61,17.13,1.32,23.78,6.33,10.49,7.9,1.75,16.71-6.66,21.31a43.45,43.45,0,0,1-12.42,4.6,16.86,16.86,0,0,1-8.15,0c-4.29-1.35-5.73-4.86-1.14-7.55,3.82-2.24,10.46-.78,14.6-.2a98.06,98.06,0,0,1,12.88,2.68c5.3,1.48,23.23,8.1,13.74,16-2.47,2.06,1.08,5.58,3.54,3.54,7.73-6.45,2.48-16.07-4.76-20.12C119,207.37,105,204.65,93.8,205c-4.22.14-8.89,1.19-11.61,4.71s-1.73,8,1.52,10.92c8.08,7.24,22.15,1.76,30.15-2.83,7.6-4.36,17.26-13,12.28-22.69-4.65-9-16.86-13-26.27-13.8-7.31-.62-22.75.22-24.52,9.74-2,10.54,13.69,13,20.82,12.37,11.06-.92,26.67-5,33.17-14.87,6.19-9.44-.18-19.83-10.87-20.77-3.2-.28-3.19,4.72,0,5Z"/><ellipse class="cls-1" cx="101.23" cy="104.94" rx="66.42" ry="71.17"/><circle class="cls-1" cx="54.98" cy="154.63" r="14.94"/><circle class="cls-1" cx="147.46" cy="154.63" r="14.94"/><path class="cls-1" d="M41.55,75.52S33.1,42,44,37s23.59,10,23.59,10"/><path class="cls-1" d="M161,75.52S169.47,42,158.59,37s-23.59,10-23.59,10"/><path class="cls-2" d="M100.77,91.89s-28-1.27-34.33,13.07c0,0-8.69,23.62,17.16,20.67s35.53.26,35.53.26,23.25,4,17.32-19.23C136.45,106.65,132.63,91.86,100.77,91.89Z"/><ellipse class="cls-2" cx="116.95" cy="79.14" rx="3.04" ry="3.62"/><ellipse class="cls-2" cx="82.69" cy="79.14" rx="3.04" ry="3.62"/><ellipse class="cls-3" cx="90.41" cy="106.07" rx="5.12" ry="3.37" transform="translate(-46.65 131.33) rotate(-60)"/><ellipse class="cls-3" cx="110.54" cy="106.07" rx="3.37" ry="5.12" transform="translate(-25.72 36.05) rotate(-16.62)"/><circle class="cls-4" cx="82.69" cy="80" r="15.91"/><circle class="cls-4" cx="116.95" cy="80" r="15.91"/><path class="cls-2" d="M64.81,131.58a33.15,33.15,0,0,0,6.29,6.71,1.94,1.94,0,0,0,2.65,0,1.89,1.89,0,0,0,0-2.65,29.83,29.83,0,0,1-5.71-6c-1.39-1.95-4.64-.08-3.24,1.89Z"/></svg>