<svg width="35" height="36" viewBox="0 0 35 36" fill="none" xmlns="http://www.w3.org/2000/svg">
<path d="M31.4161 20.5476L34.5574 22.333C34.9162 22.5369 35.0827 22.9585 34.9598 23.348C34.1438 25.9349 32.7506 28.272 30.9285 30.2131C30.7922 30.3585 30.6097 30.4538 30.411 30.4836C30.2123 30.5133 30.0093 30.4756 29.8352 30.3767L26.6962 28.5916C25.3755 29.7058 23.8572 30.5702 22.2175 31.1413V34.711C22.2175 34.909 22.1491 35.1011 22.0235 35.2556C21.8978 35.4102 21.7225 35.5181 21.5263 35.5615C18.9496 36.1313 16.1822 36.1607 13.4755 35.562C13.0708 35.4725 12.7824 35.1196 12.7824 34.7111V31.1413C11.1427 30.5703 9.62436 29.7058 8.30368 28.5916L5.1647 30.3767C4.99064 30.4756 4.7876 30.5133 4.58893 30.4836C4.39025 30.4538 4.20775 30.3585 4.07139 30.2131C2.24936 28.272 0.856114 25.9349 0.0401145 23.348C-0.0827645 22.9586 0.0837524 22.5369 0.442512 22.333L3.58393 20.5476C3.2684 18.8634 3.2684 17.1366 3.58393 15.4525L0.442586 13.6671C0.0838263 13.4632 -0.0826909 13.0416 0.0401882 12.6521C0.856188 10.0651 2.24936 7.72805 4.07146 5.78696C4.20782 5.64161 4.39033 5.54625 4.589 5.51652C4.78768 5.48679 4.99071 5.52447 5.16477 5.62336L8.30375 7.40848C9.62446 6.29425 11.1428 5.42983 12.7825 4.85873V1.289C12.7825 1.09102 12.8509 0.898936 12.9765 0.744355C13.1022 0.589775 13.2775 0.481908 13.4737 0.438503C16.0504 -0.131253 18.8178 -0.160721 21.5245 0.437995C21.9292 0.527487 22.2176 0.880446 22.2176 1.28886V4.85865C23.8573 5.42973 25.3756 6.29415 26.6963 7.40841L29.8353 5.62329C30.0094 5.52439 30.2124 5.48672 30.4111 5.51644C30.6097 5.54617 30.7922 5.64154 30.9286 5.78689C32.7506 7.72798 34.1439 10.0651 34.9599 12.652C35.0828 13.0414 34.9162 13.4631 34.5575 13.667L31.4161 15.4524C31.7316 17.1366 31.7316 18.8634 31.4161 20.5476ZM23.397 18C23.397 14.7983 20.7516 12.1936 17.5 12.1936C14.2484 12.1936 11.603 14.7983 11.603 18C11.603 21.2017 14.2484 23.8064 17.5 23.8064C20.7516 23.8064 23.397 21.2017 23.397 18Z" fill="#123E6D"/>
</svg>
